<svg width="20" height="16" viewBox="0 0 20 16" fill="none" xmlns="http://www.w3.org/2000/svg">
<path d="M7.825 12.275C7.825 13.225 7.475 14.025 6.775 14.675C6.075 15.325 5.25 15.65 4.3 15.65C3.3 15.65 2.46667 15.325 1.8 14.675C1.13333 14.025 0.8 13.225 0.8 12.275C0.8 11.9417 0.833334 11.575 0.9 11.175C0.966667 10.775 1.15833 10.225 1.475 9.525L5.675 0.549998H8.65L6.65 9.825C7 10.075 7.28333 10.425 7.5 10.875C7.71667 11.3083 7.825 11.775 7.825 12.275ZM18.35 12.275C18.35 13.225 17.9917 14.025 17.275 14.675C16.575 15.325 15.7583 15.65 14.825 15.65C13.875 15.65 13.0583 15.325 12.375 14.675C11.6917 14.025 11.35 13.225 11.35 12.275C11.35 11.9417 11.3833 11.575 11.45 11.175C11.5167 10.775 11.7083 10.225 12.025 9.525L16.3 0.549998H19.2L17.225 9.825C17.575 10.075 17.85 10.425 18.05 10.875C18.25 11.3083 18.35 11.775 18.35 12.275Z" fill="#2E7EFF"/>
</svg>
