<svg width="20" height="16" viewBox="0 0 20 16" fill="none" xmlns="http://www.w3.org/2000/svg">
<path d="M1.575 4.15C1.575 3.2 1.925 2.39167 2.625 1.725C3.34167 1.05833 4.16667 0.724998 5.1 0.724998C6.05 0.724998 6.875 1.05833 7.575 1.725C8.29167 2.39167 8.65 3.2 8.65 4.15C8.65 4.53333 8.59167 4.90833 8.475 5.275C8.375 5.64166 8.15833 6.16666 7.825 6.85L3.625 15.85H0.725L2.65 6.575C2.33333 6.325 2.075 5.975 1.875 5.525C1.675 5.075 1.575 4.61667 1.575 4.15ZM12.125 4.15C12.125 3.2 12.4833 2.39167 13.2 1.725C13.9167 1.05833 14.7333 0.724998 15.65 0.724998C16.6167 0.724998 17.45 1.05833 18.15 1.725C18.85 2.39167 19.2 3.2 19.2 4.15C19.2 4.53333 19.1583 4.90833 19.075 5.275C18.9917 5.64166 18.7917 6.16666 18.475 6.85L14.2 15.85H11.3L13.275 6.575C12.925 6.325 12.6417 5.975 12.425 5.525C12.225 5.075 12.125 4.61667 12.125 4.15Z" fill="#2E7EFF"/>
</svg>
