<svg width="902" height="900" viewBox="0 0 902 900" fill="none" xmlns="http://www.w3.org/2000/svg">
<path d="M358.961 738.378L396 650.832C375.049 640.357 354.846 629.507 335.391 618.283C315.937 607.06 296.482 594.714 277.028 581.245L264.682 644.098L358.961 738.378ZM452.119 579L578.947 451.049C566.975 419.623 548.643 385.952 523.951 350.035C499.258 314.119 471.199 280.448 439.772 249.022C387.395 196.644 329.218 155.677 265.243 126.121C201.267 96.5654 142.343 83.6581 88.4686 87.3994C84.7274 141.273 97.6347 200.385 127.191 264.735C156.747 329.084 197.713 387.448 250.091 439.826C281.517 471.252 315.189 499.312 351.105 524.004C387.021 548.696 420.692 567.028 452.119 579ZM379.164 379.217C361.954 396.427 340.816 405.032 315.75 405.032C290.683 405.032 269.545 396.427 252.336 379.217C235.126 362.008 226.521 340.682 226.521 315.242C226.521 289.801 235.126 268.476 252.336 251.266C269.545 234.057 290.683 225.452 315.75 225.452C340.816 225.452 361.954 234.057 379.164 251.266C396.374 268.476 404.979 289.801 404.979 315.242C404.979 340.682 396.374 362.008 379.164 379.217ZM739.447 357.892L645.167 263.612L582.314 275.959C595.783 295.413 607.942 314.868 618.792 334.322C629.641 353.777 640.304 373.98 650.779 394.931L739.447 357.892ZM6.53513 6.58826C97.0735 -7.62851 185.18 1.16344 270.855 32.9641C356.53 64.7648 438.276 119.574 516.094 197.392L627.209 174.945C642.174 171.952 656.765 172.7 670.982 177.189C685.199 181.679 697.545 189.162 708.02 199.637L896.58 388.196L675.472 482.476L483.545 674.402L389.266 895.51L200.706 708.074C190.231 697.598 182.748 685.065 178.259 670.474C173.769 655.883 173.021 641.105 176.014 626.14L198.462 515.025C120.643 437.207 65.647 355.647 33.4722 270.347C1.29737 185.046 -7.68164 97.1266 6.53513 6.58826ZM626.087 815.822C599.898 789.633 586.617 757.645 586.243 719.859C585.868 682.072 598.776 650.084 624.965 623.895C651.153 597.707 683.141 584.799 720.928 585.173C758.714 585.548 790.702 598.829 816.891 625.018C835.597 643.724 851.685 674.963 865.153 718.736C878.622 762.509 890.594 822.93 901.069 900C823.999 889.524 763.578 877.552 719.805 864.084C676.033 850.615 644.793 834.528 626.087 815.822ZM688.94 751.846C696.423 759.329 710.078 766.811 729.907 774.294C749.735 781.776 769.751 787.014 789.954 790.007C786.961 769.804 781.91 749.789 774.802 729.96C767.693 710.131 760.398 696.476 752.916 688.993C743.937 680.014 733.087 675.151 720.367 674.402C707.646 673.654 696.797 677.769 687.818 686.748C678.839 695.727 674.536 706.577 674.91 719.297C675.284 732.018 679.961 742.867 688.94 751.846Z" fill="#2E2E2E"/>
</svg>
