<svg width="300" height="246" viewBox="0 0 300 246" fill="none" xmlns="http://www.w3.org/2000/svg">
<path d="M13.6364 245.455C9.77273 245.455 6.53409 244.148 3.92045 241.534C1.30682 238.92 0 235.682 0 231.818C0 227.955 1.30682 224.716 3.92045 222.102C6.53409 219.489 9.77273 218.182 13.6364 218.182H286.364C290.227 218.182 293.466 219.489 296.08 222.102C298.693 224.716 300 227.955 300 231.818C300 235.682 298.693 238.92 296.08 241.534C293.466 244.148 290.227 245.455 286.364 245.455H13.6364ZM40.9091 204.545C33.4091 204.545 26.9886 201.875 21.6477 196.534C16.3068 191.193 13.6364 184.773 13.6364 177.273V27.2727C13.6364 19.7727 16.3068 13.3523 21.6477 8.01136C26.9886 2.67045 33.4091 0 40.9091 0H259.091C266.591 0 273.011 2.67045 278.352 8.01136C283.693 13.3523 286.364 19.7727 286.364 27.2727V177.273C286.364 184.773 283.693 191.193 278.352 196.534C273.011 201.875 266.591 204.545 259.091 204.545H40.9091ZM40.9091 177.273H259.091V27.2727H40.9091V177.273Z" fill="#E4A30B"/>
</svg>
