<svg width="145" height="80" viewBox="0 0 145 80" fill="none" xmlns="http://www.w3.org/2000/svg">
<path d="M20.32 4.4V22.54C20.32 23.86 20.1333 25.12 19.76 26.32C19.3867 27.52 18.7933 28.5867 17.98 29.52C17.18 30.44 16.14 31.1733 14.86 31.72C13.5933 32.2533 12.06 32.52 10.26 32.52C8.74 32.52 7.33333 32.3 6.04 31.86C4.74667 31.42 3.53333 30.7933 2.4 29.98L4.3 27.02C5.39333 27.74 6.4 28.2267 7.32 28.48C8.25333 28.7333 9.17333 28.86 10.08 28.86C11.8133 28.86 13.18 28.3067 14.18 27.2C15.1933 26.0933 15.7 24.5067 15.7 22.44V7.96H7.4V4.4H20.32ZM43.6844 26.82C43.6844 27.6467 43.811 28.2533 44.0644 28.64C44.3177 29.0133 44.7244 29.2933 45.2844 29.48L44.2844 32.52C43.2444 32.4 42.351 32.1133 41.6044 31.66C40.8577 31.2067 40.291 30.52 39.9044 29.6C39.131 30.5733 38.151 31.3067 36.9644 31.8C35.7777 32.2933 34.511 32.54 33.1644 32.54C31.031 32.54 29.3377 31.94 28.0844 30.74C26.8444 29.5267 26.2244 27.94 26.2244 25.98C26.2244 23.7533 27.091 22.04 28.8244 20.84C30.5577 19.64 33.0377 19.04 36.2644 19.04H39.2844V17.66C39.2844 16.3 38.871 15.32 38.0444 14.72C37.231 14.12 36.0777 13.82 34.5844 13.82C33.891 13.82 33.051 13.9133 32.0644 14.1C31.0777 14.2733 30.0444 14.5467 28.9644 14.92L27.8644 11.76C29.1844 11.2667 30.4777 10.9067 31.7444 10.68C33.011 10.44 34.1844 10.32 35.2644 10.32C38.091 10.32 40.1977 10.9467 41.5844 12.2C42.9844 13.4533 43.6844 15.1867 43.6844 17.4V26.82ZM34.5244 29.24C35.431 29.24 36.3177 29 37.1844 28.52C38.051 28.04 38.751 27.3667 39.2844 26.5V21.84H36.8044C34.6977 21.84 33.191 22.1933 32.2844 22.9C31.3777 23.5933 30.9244 24.5533 30.9244 25.78C30.9244 26.9 31.2244 27.76 31.8244 28.36C32.4377 28.9467 33.3377 29.24 34.5244 29.24ZM63.0688 10.88V28.72H68.8088V32H52.2688V28.72H58.5888V14.16H52.4688V10.88H63.0688ZM59.9488 0.539999C60.8288 0.539999 61.5354 0.806665 62.0688 1.34C62.6154 1.87333 62.8888 2.54 62.8888 3.34C62.8888 4.14 62.6154 4.81333 62.0688 5.36C61.5354 5.90667 60.8288 6.18 59.9488 6.18C59.0954 6.18 58.3954 5.90667 57.8488 5.36C57.3021 4.81333 57.0288 4.14 57.0288 3.34C57.0288 2.54 57.3021 1.87333 57.8488 1.34C58.3954 0.806665 59.0954 0.539999 59.9488 0.539999ZM75.5131 32V10.88H79.3731L79.7131 13.62C80.5931 12.54 81.6331 11.72 82.8331 11.16C84.0331 10.6 85.2665 10.32 86.5331 10.32C88.5065 10.32 89.9798 10.8733 90.9531 11.98C91.9398 13.0733 92.4331 14.6133 92.4331 16.6V32H87.9531V18.82C87.9531 17.5933 87.8798 16.6067 87.7331 15.86C87.5865 15.1133 87.2931 14.5733 86.8531 14.24C86.4265 13.9067 85.7865 13.74 84.9331 13.74C84.2531 13.74 83.6065 13.8867 82.9931 14.18C82.3798 14.4733 81.8198 14.86 81.3131 15.34C80.8065 15.8067 80.3665 16.3067 79.9931 16.84V32H75.5131ZM103.218 22.88C103.311 24.32 103.618 25.5 104.138 26.42C104.658 27.3267 105.338 27.9933 106.178 28.42C107.031 28.8467 107.964 29.06 108.978 29.06C110.018 29.06 110.978 28.9 111.858 28.58C112.738 28.26 113.624 27.8067 114.518 27.22L116.458 29.9C115.471 30.7 114.318 31.34 112.998 31.82C111.678 32.3 110.264 32.54 108.758 32.54C106.571 32.54 104.718 32.0733 103.198 31.14C101.691 30.2067 100.544 28.9067 99.7575 27.24C98.9708 25.5733 98.5775 23.6467 98.5775 21.46C98.5775 19.34 98.9642 17.4467 99.7375 15.78C100.511 14.1 101.618 12.7733 103.058 11.8C104.498 10.8133 106.218 10.32 108.218 10.32C110.098 10.32 111.711 10.7467 113.058 11.6C114.418 12.4533 115.464 13.6667 116.198 15.24C116.944 16.8 117.318 18.68 117.318 20.88C117.318 21.24 117.304 21.6 117.278 21.96C117.264 22.3067 117.244 22.6133 117.218 22.88H103.218ZM108.258 13.64C106.858 13.64 105.698 14.14 104.778 15.14C103.871 16.14 103.344 17.7 103.198 19.82H112.978C112.938 17.8333 112.511 16.3067 111.698 15.24C110.898 14.1733 109.751 13.64 108.258 13.64Z" fill="#0952C8"/>
<path d="M17.22 63.02C17.22 61.78 16.98 60.82 16.5 60.14C16.02 59.46 15.3733 58.9867 14.56 58.72C13.7467 58.44 12.8333 58.3 11.82 58.3H7.88V67.4H11.62C12.2867 67.4 12.9467 67.3467 13.6 67.24C14.2667 67.12 14.8733 66.9067 15.42 66.6C15.9667 66.28 16.4 65.8333 16.72 65.26C17.0533 64.6867 17.22 63.94 17.22 63.02ZM16.16 50.76C16.16 49.3733 15.7267 48.38 14.86 47.78C13.9933 47.18 12.7733 46.88 11.2 46.88H7.88V54.86H11.48C13.0267 54.86 14.1933 54.54 14.98 53.9C15.7667 53.2467 16.16 52.2 16.16 50.76ZM22.06 63.04C22.06 64.5733 21.76 65.86 21.16 66.9C20.56 67.9267 19.7467 68.74 18.72 69.34C17.7067 69.94 16.56 70.3667 15.28 70.62C14 70.8733 12.68 71 11.32 71H3.24V43.4H10.78C12.0733 43.4 13.32 43.5133 14.52 43.74C15.72 43.9533 16.7933 44.3267 17.74 44.86C18.7 45.3933 19.46 46.1133 20.02 47.02C20.58 47.9133 20.86 49.0333 20.86 50.38C20.86 51.54 20.62 52.5267 20.14 53.34C19.66 54.1533 19.0267 54.8133 18.24 55.32C17.4667 55.8133 16.64 56.1667 15.76 56.38C16.76 56.54 17.74 56.8533 18.7 57.32C19.6733 57.7733 20.4733 58.46 21.1 59.38C21.74 60.3 22.06 61.52 22.06 63.04ZM31.2644 61.88C31.3577 63.32 31.6644 64.5 32.1844 65.42C32.7044 66.3267 33.3844 66.9933 34.2244 67.42C35.0777 67.8467 36.011 68.06 37.0244 68.06C38.0644 68.06 39.0244 67.9 39.9044 67.58C40.7844 67.26 41.671 66.8067 42.5644 66.22L44.5044 68.9C43.5177 69.7 42.3644 70.34 41.0444 70.82C39.7244 71.3 38.311 71.54 36.8044 71.54C34.6177 71.54 32.7644 71.0733 31.2444 70.14C29.7377 69.2067 28.591 67.9067 27.8044 66.24C27.0177 64.5733 26.6244 62.6467 26.6244 60.46C26.6244 58.34 27.011 56.4467 27.7844 54.78C28.5577 53.1 29.6644 51.7733 31.1044 50.8C32.5444 49.8133 34.2644 49.32 36.2644 49.32C38.1444 49.32 39.7577 49.7467 41.1044 50.6C42.4644 51.4533 43.511 52.6667 44.2444 54.24C44.991 55.8 45.3644 57.68 45.3644 59.88C45.3644 60.24 45.351 60.6 45.3244 60.96C45.311 61.3067 45.291 61.6133 45.2644 61.88H31.2644ZM36.3044 52.64C34.9044 52.64 33.7444 53.14 32.8244 54.14C31.9177 55.14 31.391 56.7 31.2444 58.82H41.0244C40.9844 56.8333 40.5577 55.3067 39.7444 54.24C38.9444 53.1733 37.7977 52.64 36.3044 52.64ZM60.8088 41.4V65.24C60.8088 66.2133 61.1021 66.9067 61.6888 67.32C62.2888 67.72 63.0621 67.92 64.0088 67.92C64.6221 67.92 65.2021 67.8533 65.7488 67.72C66.2954 67.5867 66.8288 67.42 67.3488 67.22L68.4888 70.34C67.8621 70.66 67.0888 70.94 66.1688 71.18C65.2621 71.42 64.2221 71.54 63.0488 71.54C60.9288 71.54 59.2754 70.9467 58.0888 69.76C56.9154 68.56 56.3288 66.92 56.3288 64.84V44.7H49.9488V41.4H60.8088ZM87.0531 49.88V67.72H92.7931V71H76.2531V67.72H82.5731V53.16H76.4531V49.88H87.0531ZM83.9331 39.54C84.8131 39.54 85.5198 39.8067 86.0531 40.34C86.5998 40.8733 86.8731 41.54 86.8731 42.34C86.8731 43.14 86.5998 43.8133 86.0531 44.36C85.5198 44.9067 84.8131 45.18 83.9331 45.18C83.0798 45.18 82.3798 44.9067 81.8331 44.36C81.2865 43.8133 81.0131 43.14 81.0131 42.34C81.0131 41.54 81.2865 40.8733 81.8331 40.34C82.3798 39.8067 83.0798 39.54 83.9331 39.54ZM99.4975 71V49.88H103.358L103.698 52.62C104.578 51.54 105.618 50.72 106.818 50.16C108.018 49.6 109.251 49.32 110.518 49.32C112.491 49.32 113.964 49.8733 114.938 50.98C115.924 52.0733 116.418 53.6133 116.418 55.6V71H111.938V57.82C111.938 56.5933 111.864 55.6067 111.718 54.86C111.571 54.1133 111.278 53.5733 110.838 53.24C110.411 52.9067 109.771 52.74 108.918 52.74C108.238 52.74 107.591 52.8867 106.978 53.18C106.364 53.4733 105.804 53.86 105.298 54.34C104.791 54.8067 104.351 55.3067 103.978 55.84V71H99.4975ZM141.262 47.2L142.462 50.92C141.622 51.2 140.695 51.3867 139.682 51.48C138.682 51.5733 137.562 51.62 136.322 51.62C137.589 52.18 138.542 52.9 139.182 53.78C139.822 54.6467 140.142 55.7133 140.142 56.98C140.142 58.3533 139.809 59.58 139.142 60.66C138.475 61.74 137.522 62.5867 136.282 63.2C135.042 63.8133 133.555 64.12 131.822 64.12C131.209 64.12 130.675 64.0933 130.222 64.04C129.782 63.9867 129.349 63.9 128.922 63.78C128.655 63.9667 128.429 64.22 128.242 64.54C128.069 64.8467 127.982 65.1733 127.982 65.52C127.982 65.9467 128.155 66.32 128.502 66.64C128.862 66.9467 129.569 67.1 130.622 67.1H134.302C135.809 67.1 137.135 67.36 138.282 67.88C139.442 68.3867 140.349 69.0867 141.002 69.98C141.669 70.86 142.002 71.86 142.002 72.98C142.002 75.0867 141.095 76.72 139.282 77.88C137.469 79.04 134.855 79.62 131.442 79.62C129.029 79.62 127.135 79.3733 125.762 78.88C124.389 78.3867 123.422 77.6533 122.862 76.68C122.302 75.7067 122.022 74.5133 122.022 73.1H126.042C126.042 73.8333 126.182 74.44 126.462 74.92C126.755 75.4 127.295 75.76 128.082 76C128.869 76.24 130.002 76.36 131.482 76.36C132.962 76.36 134.135 76.2333 135.002 75.98C135.882 75.74 136.515 75.3867 136.902 74.92C137.302 74.4667 137.502 73.92 137.502 73.28C137.502 72.4267 137.129 71.7667 136.382 71.3C135.635 70.8333 134.635 70.6 133.382 70.6H129.762C127.762 70.6 126.295 70.1933 125.362 69.38C124.442 68.5667 123.982 67.62 123.982 66.54C123.982 65.82 124.182 65.1267 124.582 64.46C124.995 63.7933 125.582 63.2133 126.342 62.72C125.075 62.0533 124.149 61.2467 123.562 60.3C122.989 59.34 122.702 58.18 122.702 56.82C122.702 55.3267 123.075 54.02 123.822 52.9C124.569 51.78 125.602 50.9067 126.922 50.28C128.255 49.6533 129.789 49.34 131.522 49.34C133.215 49.34 134.629 49.2533 135.762 49.08C136.895 48.8933 137.882 48.6333 138.722 48.3C139.575 47.9667 140.422 47.6 141.262 47.2ZM131.562 52.42C130.135 52.42 129.062 52.8267 128.342 53.64C127.622 54.44 127.262 55.4867 127.262 56.78C127.262 58.1133 127.629 59.1867 128.362 60C129.109 60.8 130.195 61.2 131.622 61.2C132.942 61.2 133.949 60.8133 134.642 60.04C135.349 59.2667 135.702 58.1667 135.702 56.74C135.702 55.3 135.355 54.22 134.662 53.5C133.969 52.78 132.935 52.42 131.562 52.42Z" fill="#0952C8"/>
</svg>
