<svg width="60" height="58" viewBox="0 0 60 58" fill="none" xmlns="http://www.w3.org/2000/svg">
<path d="M20.7273 57.2727L15.5455 48.5455L5.72727 46.3636L6.68182 36.2727L0 28.6364L6.68182 21L5.72727 10.9091L15.5455 8.72727L20.7273 0L30 3.95455L39.2727 0L44.4545 8.72727L54.2727 10.9091L53.3182 21L60 28.6364L53.3182 36.2727L54.2727 46.3636L44.4545 48.5455L39.2727 57.2727L30 53.3182L20.7273 57.2727ZM23.0455 50.3182L30 47.3182L37.0909 50.3182L40.9091 43.7727L48.4091 42L47.7273 34.3636L52.7727 28.6364L47.7273 22.7727L48.4091 15.1364L40.9091 13.5L36.9545 6.95455L30 9.95455L22.9091 6.95455L19.0909 13.5L11.5909 15.1364L12.2727 22.7727L7.22727 28.6364L12.2727 34.3636L11.5909 42.1364L19.0909 43.7727L23.0455 50.3182ZM27.1364 38.3182L42.5455 22.9091L38.7273 18.9545L27.1364 30.5455L21.2727 24.8182L17.4545 28.6364L27.1364 38.3182Z" fill="#0952C8"/>
</svg>
